<?xml version="1.0" encoding="UTF-8"?>
<!DOCTYPE svg PUBLIC "-//W3C//DTD SVG 1.1//EN" "http://www.w3.org/Graphics/SVG/1.1/DTD/svg11.dtd">
<svg xmlns="http://www.w3.org/2000/svg" version="1.1" width="626px" height="292px" style="shape-rendering:geometricPrecision; text-rendering:geometricPrecision; image-rendering:optimizeQuality; fill-rule:evenodd; clip-rule:evenodd" xmlns:xlink="http://www.w3.org/1999/xlink">
<g><path style="opacity:1" fill="#bbb8b2" d="M -0.5,-0.5 C 208.167,-0.5 416.833,-0.5 625.5,-0.5C 625.5,96.8333 625.5,194.167 625.5,291.5C 416.833,291.5 208.167,291.5 -0.5,291.5C -0.5,194.167 -0.5,96.8333 -0.5,-0.5 Z"/></g>
<g><path style="opacity:1" fill="#26573d" d="M 281.5,48.5 C 303.833,48.5 326.167,48.5 348.5,48.5C 351.37,71.7035 364.37,85.0368 387.5,88.5C 388.372,119.369 379.539,147.036 361,171.5C 348.336,185.48 333.002,195.48 315,201.5C 274.788,186.617 251.454,157.95 245,115.5C 243.775,106.197 242.942,96.8636 242.5,87.5C 266.167,85.1667 279.167,72.1667 281.5,48.5 Z"/></g>
<g><path style="opacity:1" fill="#afb0a8" d="M 313.5,64.5 C 314.822,64.33 315.989,64.6634 317,65.5C 319.433,71.5324 322.266,77.3657 325.5,83C 332.435,84.3602 339.435,85.1935 346.5,85.5C 346.649,86.552 346.483,87.552 346,88.5C 340.787,93.3772 335.954,98.5438 331.5,104C 332.912,109.813 334.245,115.646 335.5,121.5C 335.392,122.442 335.059,123.275 334.5,124C 327.93,121.3 321.43,118.133 315,114.5C 308.811,118.511 302.311,121.844 295.5,124.5C 296.279,116.789 297.112,109.122 298,101.5C 292.684,97.3514 287.851,92.6848 283.5,87.5C 283.709,86.914 284.043,86.414 284.5,86C 291.578,85.2648 298.578,84.0981 305.5,82.5C 308.728,76.7141 311.395,70.7141 313.5,64.5 Z"/></g>
<g><path style="opacity:1" fill="#28583f" d="M 314.5,69.5 C 317.584,74.8263 320.584,80.3263 323.5,86C 329.449,87.2174 335.449,88.2174 341.5,89C 337.033,92.4651 332.867,96.2984 329,100.5C 329.024,106.937 329.691,113.271 331,119.5C 326.072,116.036 320.739,113.37 315,111.5C 309.459,114.192 303.959,116.692 298.5,119C 299.828,113.7 301.162,108.367 302.5,103C 298.547,98.0444 294.214,93.3777 289.5,89C 295.5,88 301.5,87 307.5,86C 310.257,80.6563 312.59,75.1563 314.5,69.5 Z"/></g>
<g><path style="opacity:1" fill="#325d47" d="M 271.5,86.5 C 276.825,88.8135 278.159,92.4801 275.5,97.5C 268.058,99.7228 265.058,97.0561 266.5,89.5C 268.145,88.3037 269.811,87.3037 271.5,86.5 Z"/></g>
<g><path style="opacity:1" fill="#345e48" d="M 255.5,91.5 C 257.604,91.2011 259.604,91.5344 261.5,92.5C 263.731,96.8818 264.398,101.382 263.5,106C 261.341,106.912 259.175,107.745 257,108.5C 256.517,107.552 256.351,106.552 256.5,105.5C 258.484,105.617 260.15,104.95 261.5,103.5C 252.104,103.015 250.104,99.0148 255.5,91.5 Z"/></g>
<g><path style="opacity:1" fill="#aeb0a8" d="M 276.5,123.5 C 289.597,129.882 302.597,136.549 315.5,143.5C 325.454,138.522 335.121,133.022 344.5,127C 347.561,124.965 350.895,123.799 354.5,123.5C 354.803,128.43 354.469,133.263 353.5,138C 340.57,145.047 327.737,152.214 315,159.5C 302.186,152.426 289.519,145.093 277,137.5C 276.501,132.845 276.334,128.179 276.5,123.5 Z"/></g>
<g><path style="opacity:1" fill="#29593f" d="M 279.5,127.5 C 291.188,134.678 303.188,141.345 315.5,147.5C 326.81,141.205 338.143,134.872 349.5,128.5C 350.983,131.612 350.65,134.445 348.5,137C 337.398,143.301 326.231,149.467 315,155.5C 303.273,149.387 291.773,142.887 280.5,136C 279.556,133.281 279.223,130.448 279.5,127.5 Z"/></g>
<g><path style="opacity:1" fill="#aeb0a8" d="M 276.5,149.5 C 289.492,156.082 302.326,163.082 315,170.5C 327.333,163.5 339.667,156.5 352,149.5C 352.772,149.645 353.439,149.978 354,150.5C 354.667,154.833 354.667,159.167 354,163.5C 341.373,171.229 328.54,178.562 315.5,185.5C 302.134,179.068 289.301,171.735 277,163.5C 276.501,158.845 276.334,154.179 276.5,149.5 Z"/></g>
<g><path style="opacity:1" fill="#29593f" d="M 279.5,154.5 C 291.101,161.218 302.934,167.551 315,173.5C 326.926,167.703 338.593,161.369 350,154.5C 351.098,158.281 350.265,161.447 347.5,164C 336.67,169.914 326.003,176.081 315.5,182.5C 303.833,175.833 292.167,169.167 280.5,162.5C 279.52,159.914 279.187,157.247 279.5,154.5 Z"/></g>
<g><path style="opacity:1" fill="#738a7a" d="M 257.5,216.5 C 260.024,215.2 262.691,215.2 265.5,216.5C 265.376,217.107 265.043,217.44 264.5,217.5C 262.393,216.532 260.059,216.198 257.5,216.5 Z"/></g>
<g><path style="opacity:1" fill="#315d45" d="M 337.5,215.5 C 341.548,215.395 345.548,215.728 349.5,216.5C 349.5,218.833 349.5,221.167 349.5,223.5C 348.5,223.5 347.5,223.5 346.5,223.5C 345.615,219.216 342.949,217.716 338.5,219C 332.582,224.687 331.915,231.021 336.5,238C 340.248,239.78 344.081,239.946 348,238.5C 349.257,238.85 349.591,239.517 349,240.5C 339.288,246.139 332.288,243.806 328,233.5C 326.714,225.069 329.881,219.069 337.5,215.5 Z"/></g>
<g><path style="opacity:1" fill="#2d5b43" d="M 459.5,215.5 C 463.215,215.423 466.881,215.756 470.5,216.5C 470.808,218.924 470.474,221.257 469.5,223.5C 468.092,218.923 465.092,217.423 460.5,219C 458.972,221.881 459.638,224.214 462.5,226C 467.66,227.329 470.994,230.495 472.5,235.5C 471.324,240.508 468.158,243.174 463,243.5C 460.208,242.784 457.374,242.451 454.5,242.5C 454.5,239.833 454.5,237.167 454.5,234.5C 455.5,234.5 456.5,234.5 457.5,234.5C 457.867,240.156 460.867,241.989 466.5,240C 467.866,237.618 467.533,235.452 465.5,233.5C 461.889,231.777 458.722,229.444 456,226.5C 455.333,223.833 455.333,221.167 456,218.5C 457.518,217.837 458.685,216.837 459.5,215.5 Z"/></g>
<g><path style="opacity:1" fill="#73897a" d="M 502.5,217.5 C 501.036,216.84 499.369,216.507 497.5,216.5C 495.36,216.556 493.694,217.223 492.5,218.5C 491.596,217.791 491.263,216.791 491.5,215.5C 495.555,215.176 499.555,215.509 503.5,216.5C 503.376,217.107 503.043,217.44 502.5,217.5 Z"/></g>
<g><path style="opacity:1" fill="#2c5b42" d="M 515.5,215.5 C 529.201,216.211 534.034,223.211 530,236.5C 525.815,243.339 519.982,245.172 512.5,242C 503.742,231.834 504.742,223 515.5,215.5 Z"/></g>
<g><path style="opacity:1" fill="#325e46" d="M 74.5,215.5 C 77.7766,215.216 80.9433,215.549 84,216.5C 85.8029,222.242 87.8029,227.909 90,233.5C 92.0685,227.794 94.2352,222.128 96.5,216.5C 99.4281,215.516 102.428,215.183 105.5,215.5C 104.518,218.378 103.851,221.378 103.5,224.5C 104.099,229.82 104.432,235.153 104.5,240.5C 105.5,240.5 106.5,240.5 107.5,240.5C 107.5,241.5 107.5,242.5 107.5,243.5C 103.5,243.5 99.5,243.5 95.5,243.5C 95.5,242.5 95.5,241.5 95.5,240.5C 96.5,240.5 97.5,240.5 98.5,240.5C 98.6662,234.158 98.4995,227.825 98,221.5C 95.6667,227.5 93.3333,233.5 91,239.5C 90.6322,240.91 89.7989,241.91 88.5,242.5C 85.3946,235.286 82.5612,227.953 80,220.5C 79.474,227.171 78.974,233.837 78.5,240.5C 79.5,240.5 80.5,240.5 81.5,240.5C 81.5,241.5 81.5,242.5 81.5,243.5C 78.5,243.5 75.5,243.5 72.5,243.5C 72.5,242.5 72.5,241.5 72.5,240.5C 73.5,240.5 74.5,240.5 75.5,240.5C 75.9159,235.846 76.2493,231.18 76.5,226.5C 76.2369,222.703 75.5702,219.036 74.5,215.5 Z"/></g>
<g><path style="opacity:1" fill="#27583e" d="M 110.5,216.5 C 114.182,216.335 117.848,216.501 121.5,217C 120.667,217.833 119.833,218.667 119,219.5C 118.5,226.492 118.334,233.492 118.5,240.5C 119.675,240.281 120.675,240.614 121.5,241.5C 117.833,242.833 114.167,242.833 110.5,241.5C 111.242,240.713 112.075,240.047 113,239.5C 113.5,232.508 113.666,225.508 113.5,218.5C 111.821,218.715 110.821,218.048 110.5,216.5 Z"/></g>
<g><path style="opacity:1" fill="#315e45" d="M 142.5,238.5 C 143.222,238.082 143.722,237.416 144,236.5C 144.495,238.473 144.662,240.473 144.5,242.5C 137.833,242.5 131.167,242.5 124.5,242.5C 124.811,241.522 125.478,240.855 126.5,240.5C 127.497,233.197 127.831,225.863 127.5,218.5C 126.325,218.719 125.325,218.386 124.5,217.5C 128.167,216.167 131.833,216.167 135.5,217.5C 133.58,224.96 132.913,232.627 133.5,240.5C 136.187,240.664 138.854,240.497 141.5,240C 142.056,239.617 142.389,239.117 142.5,238.5 Z"/></g>
<g><path style="opacity:1" fill="#27583e" d="M 148.5,216.5 C 152.182,216.335 155.848,216.501 159.5,217C 158.975,217.692 158.308,218.192 157.5,218.5C 156.335,225.811 156.169,233.144 157,240.5C 157.75,241.126 158.584,241.626 159.5,242C 155.789,242.825 152.122,242.659 148.5,241.5C 149.242,240.713 150.075,240.047 151,239.5C 151.5,232.508 151.666,225.508 151.5,218.5C 149.821,218.715 148.821,218.048 148.5,216.5 Z"/></g>
<g><path style="opacity:1" fill="#28583f" d="M 178.5,242.5 C 174.629,242.815 170.962,242.482 167.5,241.5C 168.172,240.733 169.005,240.066 170,239.5C 170.5,232.508 170.666,225.508 170.5,218.5C 166.542,217.572 163.875,218.906 162.5,222.5C 161.534,220.604 161.201,218.604 161.5,216.5C 169.167,216.5 176.833,216.5 184.5,216.5C 184.972,222.636 183.639,223.469 180.5,219C 178.866,218.506 177.199,218.34 175.5,218.5C 175.334,225.841 175.5,233.174 176,240.5C 176.995,241.066 177.828,241.733 178.5,242.5 Z"/></g>
<g><path style="opacity:1" fill="#2d5b43" d="M 193.5,242.5 C 190.302,243.036 187.635,242.369 185.5,240.5C 186.79,239.942 187.623,238.942 188,237.5C 190.333,230.5 192.667,223.5 195,216.5C 196.726,215.424 198.559,215.257 200.5,216C 203.192,223.744 205.692,231.578 208,239.5C 209.022,240.354 209.855,241.354 210.5,242.5C 206.893,243.489 203.226,243.823 199.5,243.5C 199.5,242.5 199.5,241.5 199.5,240.5C 200.5,240.5 201.5,240.5 202.5,240.5C 202.339,233.847 199.006,231.68 192.5,234C 189.573,237.435 189.906,240.269 193.5,242.5 Z"/></g>
<g><path style="opacity:1" fill="#29593f" d="M 212.5,216.5 C 218.509,216.334 224.509,216.501 230.5,217C 235.909,221.824 235.576,226.324 229.5,230.5C 231.445,234.736 234.112,238.403 237.5,241.5C 234.833,242.833 232.167,242.833 229.5,241.5C 227.726,238.285 226.226,234.952 225,231.5C 223.644,230.62 222.144,230.286 220.5,230.5C 220.5,233.833 220.5,237.167 220.5,240.5C 221.978,240.238 223.311,240.571 224.5,241.5C 220.5,242.833 216.5,242.833 212.5,241.5C 213.325,240.614 214.325,240.281 215.5,240.5C 215.5,233.167 215.5,225.833 215.5,218.5C 213.821,218.715 212.821,218.048 212.5,216.5 Z"/></g>
<g><path style="opacity:1" fill="#2f5d44" d="M 257.5,216.5 C 260.059,216.198 262.393,216.532 264.5,217.5C 257.618,223.6 254.285,231.266 254.5,240.5C 255.5,240.5 256.5,240.5 257.5,240.5C 257.5,241.5 257.5,242.5 257.5,243.5C 253.445,243.824 249.445,243.491 245.5,242.5C 248.295,239.033 249.128,235.033 248,230.5C 245.791,225.395 242.625,221.062 238.5,217.5C 242.459,216.34 246.459,216.173 250.5,217C 249.5,217.833 248.5,218.667 247.5,219.5C 249.133,222.96 250.966,226.294 253,229.5C 255.041,225.916 257.208,222.416 259.5,219C 258.619,218.292 257.953,217.458 257.5,216.5 Z"/></g>
<g><path style="opacity:1" fill="#39634b" d="M 276.5,215.5 C 283.833,215.5 291.167,215.5 298.5,215.5C 298.808,217.924 298.474,220.257 297.5,222.5C 296.491,219.013 294.158,217.68 290.5,218.5C 290.5,225.833 290.5,233.167 290.5,240.5C 291.5,240.5 292.5,240.5 293.5,240.5C 293.5,241.5 293.5,242.5 293.5,243.5C 289.5,243.5 285.5,243.5 281.5,243.5C 281.5,242.5 281.5,241.5 281.5,240.5C 282.5,240.5 283.5,240.5 284.5,240.5C 284.5,233.167 284.5,225.833 284.5,218.5C 280.842,217.68 278.509,219.013 277.5,222.5C 276.526,220.257 276.192,217.924 276.5,215.5 Z"/></g>
<g><path style="opacity:1" fill="#2f5d44" d="M 325.5,242.5 C 321.629,242.815 317.962,242.482 314.5,241.5C 316.683,239.508 317.016,237.174 315.5,234.5C 312.572,233.516 309.572,233.183 306.5,233.5C 306.007,235.806 305.674,238.139 305.5,240.5C 306.5,240.5 307.5,240.5 308.5,240.5C 308.5,241.5 308.5,242.5 308.5,243.5C 305.5,243.5 302.5,243.5 299.5,243.5C 303.784,234.659 307.117,225.326 309.5,215.5C 311.604,215.201 313.604,215.534 315.5,216.5C 317.897,224.192 320.397,231.859 323,239.5C 324.417,240.078 325.25,241.078 325.5,242.5 Z"/></g>
<g><path style="opacity:1" fill="#325e46" d="M 366.5,240.5 C 366.918,241.222 367.584,241.722 368.5,242C 364.848,242.499 361.182,242.665 357.5,242.5C 357.821,240.952 358.821,240.285 360.5,240.5C 360.5,233.167 360.5,225.833 360.5,218.5C 356.776,217.773 354.109,219.106 352.5,222.5C 351.231,220.305 351.231,218.139 352.5,216C 359.826,215.5 367.159,215.334 374.5,215.5C 374.808,217.924 374.474,220.257 373.5,222.5C 372.125,218.906 369.458,217.572 365.5,218.5C 365.175,226.019 365.508,233.352 366.5,240.5 Z"/></g>
<g><path style="opacity:1" fill="#2b5a41" d="M 441.5,242.5 C 437.629,242.815 433.962,242.482 430.5,241.5C 432.683,239.508 433.016,237.174 431.5,234.5C 428.572,233.516 425.572,233.183 422.5,233.5C 422.007,235.806 421.674,238.139 421.5,240.5C 421.918,241.222 422.584,241.722 423.5,242C 420.854,242.497 418.187,242.664 415.5,242.5C 419.772,234.376 423.105,225.709 425.5,216.5C 427.396,215.534 429.396,215.201 431.5,215.5C 433.691,225.088 437.024,234.088 441.5,242.5 Z"/></g>
<g><path style="opacity:1" fill="#2e5c43" d="M 484.5,219.5 C 483.523,222.287 483.19,225.287 483.5,228.5C 487.371,228.815 491.038,228.482 494.5,227.5C 495.055,223.988 494.388,220.988 492.5,218.5C 493.694,217.223 495.36,216.556 497.5,216.5C 499.369,216.507 501.036,216.84 502.5,217.5C 500.586,224.892 499.919,232.559 500.5,240.5C 500.918,241.222 501.584,241.722 502.5,242C 498.973,242.808 495.64,242.641 492.5,241.5C 494.273,238.512 494.94,235.179 494.5,231.5C 491.038,230.518 487.371,230.185 483.5,230.5C 483.187,234.042 483.521,237.375 484.5,240.5C 485.091,241.151 485.757,241.818 486.5,242.5C 482.833,243.833 479.167,243.833 475.5,242.5C 475.833,241.5 476.5,240.833 477.5,240.5C 478.497,233.197 478.831,225.863 478.5,218.5C 477.325,218.719 476.325,218.386 475.5,217.5C 479.167,216.167 482.833,216.167 486.5,217.5C 485.757,218.182 485.091,218.849 484.5,219.5 Z"/></g>
<g><path style="opacity:1" fill="#28583f" d="M 535.5,216.5 C 541.176,216.334 546.843,216.501 552.5,217C 557.69,219.949 558.69,223.949 555.5,229C 551.792,231.132 547.792,231.965 543.5,231.5C 543.5,234.5 543.5,237.5 543.5,240.5C 544.978,240.238 546.311,240.571 547.5,241.5C 543.5,242.833 539.5,242.833 535.5,241.5C 536.242,240.713 537.075,240.047 538,239.5C 538.5,232.508 538.666,225.508 538.5,218.5C 536.821,218.715 535.821,218.048 535.5,216.5 Z"/></g>
<g><path style="opacity:1" fill="#b2b3ab" d="M 220.5,218.5 C 228.486,217.998 230.486,221.165 226.5,228C 224.527,228.495 222.527,228.662 220.5,228.5C 220.5,225.167 220.5,221.833 220.5,218.5 Z"/></g>
<g><path style="opacity:1" fill="#b6b5ae" d="M 517.5,217.5 C 521.597,217.469 524.097,219.469 525,223.5C 526.091,229.097 525.424,234.43 523,239.5C 518.333,242.568 515.333,241.235 514,235.5C 513.333,230.833 513.333,226.167 514,221.5C 514.69,219.65 515.856,218.316 517.5,217.5 Z"/></g>
<g><path style="opacity:1" fill="#b5b4ad" d="M 543.5,218.5 C 550.993,217.829 553.326,220.995 550.5,228C 548.323,229.202 545.989,229.702 543.5,229.5C 543.5,225.833 543.5,222.167 543.5,218.5 Z"/></g>
<g><path style="opacity:1" fill="#aaada5" d="M 310.5,220.5 C 312.601,223.797 313.935,227.463 314.5,231.5C 312.143,231.663 309.81,231.497 307.5,231C 308.801,227.596 309.801,224.096 310.5,220.5 Z"/></g>
<g><path style="opacity:1" fill="#abaea6" d="M 426.5,220.5 C 428.397,223.505 429.73,226.838 430.5,230.5C 428.167,231.833 425.833,231.833 423.5,230.5C 424.909,227.273 425.909,223.94 426.5,220.5 Z"/></g>
<g><path style="opacity:1" fill="#acaea6" d="M 195.5,221.5 C 198.16,224.113 199.493,227.446 199.5,231.5C 197.5,231.5 195.5,231.5 193.5,231.5C 193.959,228.123 194.626,224.789 195.5,221.5 Z"/></g>
<g><path style="opacity:1" fill="#305d44" d="M 401.5,215.5 C 405.548,215.395 409.548,215.728 413.5,216.5C 413.756,218.792 413.423,220.959 412.5,223C 407.32,216.55 402.487,217.05 398,224.5C 396.875,229.399 397.709,233.899 400.5,238C 404.83,239.394 409.163,239.894 413.5,239.5C 407.381,244.774 401.214,244.774 395,239.5C 388.786,229.181 390.952,221.181 401.5,215.5 Z"/></g>
<g><path style="opacity:1" fill="#8b988c" d="M 484.5,219.5 C 484.5,222.167 484.5,224.833 484.5,227.5C 487.833,227.5 491.167,227.5 494.5,227.5C 491.038,228.482 487.371,228.815 483.5,228.5C 483.19,225.287 483.523,222.287 484.5,219.5 Z"/></g>
<g><path style="opacity:1" fill="#28583f" d="M 376.5,216.5 C 380.182,216.335 383.848,216.501 387.5,217C 386.667,217.833 385.833,218.667 385,219.5C 384.333,226.5 384.333,233.5 385,240.5C 385.75,241.126 386.584,241.626 387.5,242C 383.833,242.667 380.167,242.667 376.5,242C 377.025,241.308 377.692,240.808 378.5,240.5C 379.497,233.197 379.831,225.863 379.5,218.5C 377.821,218.715 376.821,218.048 376.5,216.5 Z"/></g>
<g><path style="opacity:1" fill="#73897a" d="M 494.5,231.5 C 491.167,231.5 487.833,231.5 484.5,231.5C 484.5,234.5 484.5,237.5 484.5,240.5C 483.521,237.375 483.187,234.042 483.5,230.5C 487.371,230.185 491.038,230.518 494.5,231.5 Z"/></g>
<g><path style="opacity:1" fill="#6b8373" d="M 124.5,242.5 C 131.167,242.5 137.833,242.5 144.5,242.5C 144.662,240.473 144.495,238.473 144,236.5C 143.722,237.416 143.222,238.082 142.5,238.5C 142.5,237.5 142.5,236.5 142.5,235.5C 143.5,235.5 144.5,235.5 145.5,235.5C 145.5,238.167 145.5,240.833 145.5,243.5C 138.313,243.825 131.313,243.491 124.5,242.5 Z"/></g>
<g><path style="opacity:1" fill="#728878" d="M 167.5,241.5 C 170.962,242.482 174.629,242.815 178.5,242.5C 174.649,243.809 170.649,243.809 166.5,242.5C 166.624,241.893 166.957,241.56 167.5,241.5 Z"/></g>
<g><path style="opacity:1" fill="#6c8474" d="M 185.5,240.5 C 187.635,242.369 190.302,243.036 193.5,242.5C 190.713,243.477 187.713,243.81 184.5,243.5C 184.263,242.209 184.596,241.209 185.5,240.5 Z"/></g>
<g><path style="opacity:1" fill="#74887a" d="M 314.5,241.5 C 317.962,242.482 321.629,242.815 325.5,242.5C 321.649,243.809 317.649,243.809 313.5,242.5C 313.624,241.893 313.957,241.56 314.5,241.5 Z"/></g>
<g><path style="opacity:1" fill="#708777" d="M 366.5,240.5 C 367.5,240.5 368.5,240.5 369.5,240.5C 369.5,241.5 369.5,242.5 369.5,243.5C 365.298,243.817 361.298,243.483 357.5,242.5C 361.182,242.665 364.848,242.499 368.5,242C 367.584,241.722 366.918,241.222 366.5,240.5 Z"/></g>
<g><path style="opacity:1" fill="#718778" d="M 421.5,240.5 C 422.5,240.5 423.5,240.5 424.5,240.5C 424.5,241.5 424.5,242.5 424.5,243.5C 421.287,243.81 418.287,243.477 415.5,242.5C 418.187,242.664 420.854,242.497 423.5,242C 422.584,241.722 421.918,241.222 421.5,240.5 Z"/></g>
<g><path style="opacity:1" fill="#728879" d="M 430.5,241.5 C 433.962,242.482 437.629,242.815 441.5,242.5C 437.649,243.809 433.649,243.809 429.5,242.5C 429.624,241.893 429.957,241.56 430.5,241.5 Z"/></g>
<g><path style="opacity:1" fill="#74897a" d="M 500.5,240.5 C 501.5,240.5 502.5,240.5 503.5,240.5C 503.5,241.5 503.5,242.5 503.5,243.5C 499.445,243.824 495.445,243.491 491.5,242.5C 491.624,241.893 491.957,241.56 492.5,241.5C 495.64,242.641 498.973,242.808 502.5,242C 501.584,241.722 500.918,241.222 500.5,240.5 Z"/></g>
<g><path style="opacity:1" fill="#778c7c" d="M 554.5,256.5 C 555.5,256.5 556.5,256.5 557.5,256.5C 557.649,257.552 557.483,258.552 557,259.5C 556.333,258.167 555.667,258.167 555,259.5C 554.517,258.552 554.351,257.552 554.5,256.5 Z"/></g>
<g><path style="opacity:1" fill="#7b8f80" d="M 167.5,257.5 C 167.228,259.929 167.895,262.429 169.5,265C 169.215,268.301 167.548,269.635 164.5,269C 167.306,267.695 168.14,265.528 167,262.5C 165.992,262.018 164.825,261.852 163.5,262C 165.041,260.629 166.375,259.129 167.5,257.5 Z"/></g>
<g><path style="opacity:1" fill="#839486" d="M 270.5,257.5 C 272.225,261.084 273.225,265.084 273.5,269.5C 272.675,270.386 271.675,270.719 270.5,270.5C 270.5,266.167 270.5,261.833 270.5,257.5 Z"/></g>
<g><path style="opacity:1" fill="#547561" d="M 78.5,264.5 C 77.4324,265.434 76.099,265.768 74.5,265.5C 73.2121,263.908 73.2121,263.575 74.5,264.5C 75.8333,264.5 77.1667,264.5 78.5,264.5 Z"/></g>
<g><path style="opacity:1" fill="#627e6c" d="M 78.5,264.5 C 78.3433,263.127 78.51,261.793 79,260.5C 81.0185,262.124 80.8519,263.457 78.5,264.5 Z"/></g>
<g><path style="opacity:1" fill="#809284" d="M 486.5,261.5 C 489.166,261.066 490.333,262.066 490,264.5C 489.333,263.833 488.667,263.167 488,262.5C 485.821,263.84 485.321,263.507 486.5,261.5 Z"/></g>
<g><path style="opacity:1" fill="#748a7a" d="M 527.5,257.5 C 528.434,260.493 528.934,263.826 529,267.5C 528.667,267.833 528.333,268.167 528,268.5C 529.19,265.727 528.524,263.394 526,261.5C 523.476,263.394 522.81,265.727 524,268.5C 522.513,266.728 522.18,264.728 523,262.5C 525.049,261.286 526.549,259.62 527.5,257.5 Z"/></g>
<g><path style="opacity:1" fill="#647f6d" d="M 217.5,261.5 C 218.822,261.33 219.989,261.663 221,262.5C 221.667,264.833 221.667,267.167 221,269.5C 220.505,267.527 220.338,265.527 220.5,263.5C 219.178,263.33 218.011,263.663 217,264.5C 216.667,266.167 216.333,267.833 216,269.5C 215.133,266.479 215.633,263.812 217.5,261.5 Z"/></g>
<g><path style="opacity:1" fill="#6e8675" d="M 248.5,266.5 C 245.068,266.752 244.068,265.419 245.5,262.5C 245.436,264.176 246.436,265.509 248.5,266.5 Z"/></g>
<g><path style="opacity:1" fill="#708777" d="M 279.5,261.5 C 284.521,262.393 285.687,265.059 283,269.5C 284.19,266.727 283.524,264.394 281,262.5C 278.535,264.055 278.035,266.055 279.5,268.5C 279.154,269.696 278.654,269.696 278,268.5C 277.167,265.829 277.667,263.496 279.5,261.5 Z"/></g>
<g><path style="opacity:1" fill="#647f6d" d="M 316.5,261.5 C 317.822,261.33 318.989,261.663 320,262.5C 320.667,264.833 320.667,267.167 320,269.5C 319.505,267.527 319.338,265.527 319.5,263.5C 318.178,263.33 317.011,263.663 316,264.5C 315.667,266.167 315.333,267.833 315,269.5C 314.133,266.479 314.633,263.812 316.5,261.5 Z"/></g>
<g><path style="opacity:1" fill="#647f6d" d="M 438.5,261.5 C 439.822,261.33 440.989,261.663 442,262.5C 442.667,264.833 442.667,267.167 442,269.5C 441.505,267.527 441.338,265.527 441.5,263.5C 440.178,263.33 439.011,263.663 438,264.5C 437.667,266.167 437.333,267.833 437,269.5C 436.133,266.479 436.633,263.812 438.5,261.5 Z"/></g>
<g><path style="opacity:1" fill="#6e8675" d="M 509.5,266.5 C 506.068,266.752 505.068,265.419 506.5,262.5C 506.436,264.176 507.436,265.509 509.5,266.5 Z"/></g>
<g><path style="opacity:1" fill="#708777" d="M 84.5,262.5 C 85.8734,262.343 87.2068,262.51 88.5,263C 87.0361,264.864 86.0361,267.031 85.5,269.5C 84.5258,267.257 84.1924,264.924 84.5,262.5 Z"/></g>
<g><path style="opacity:1" fill="#7c8f80" d="M 95.5,261.5 C 97.3841,261.712 98.7174,262.712 99.5,264.5C 97.5,265.167 95.5,265.833 93.5,266.5C 94.714,268.069 96.3807,268.902 98.5,269C 95.0565,271.257 93.0565,270.257 92.5,266C 92.5572,263.791 93.5572,262.291 95.5,261.5 Z"/></g>
<g><path style="opacity:1" fill="#758b7b" d="M 155.5,261.5 C 156.748,262.334 157.415,263.667 157.5,265.5C 157.167,266.833 156.833,268.167 156.5,269.5C 155.52,266.914 155.187,264.247 155.5,261.5 Z"/></g>
<g><path style="opacity:1" fill="#678170" d="M 177.5,261.5 C 178.496,261.414 179.329,261.748 180,262.5C 180.667,264.833 180.667,267.167 180,269.5C 179.505,267.527 179.338,265.527 179.5,263.5C 178.5,263.5 177.5,263.5 176.5,263.5C 176.799,265.604 176.466,267.604 175.5,269.5C 174.526,267.257 174.192,264.924 174.5,262.5C 175.791,262.737 176.791,262.404 177.5,261.5 Z"/></g>
<g><path style="opacity:1" fill="#728879" d="M 255.5,260.5 C 255.959,263.49 256.959,266.323 258.5,269C 257.251,270.824 256.085,270.657 255,268.5C 254.278,265.739 254.445,263.073 255.5,260.5 Z"/></g>
<g><path style="opacity:1" fill="#829385" d="M 263.5,261.5 C 264.748,262.334 265.415,263.667 265.5,265.5C 265.167,266.833 264.833,268.167 264.5,269.5C 263.52,266.914 263.187,264.247 263.5,261.5 Z"/></g>
<g><path style="opacity:1" fill="#66806f" d="M 333.5,262.5 C 334.239,262.369 334.906,262.536 335.5,263C 334.107,264.171 333.273,265.671 333,267.5C 332.36,265.735 332.527,264.068 333.5,262.5 Z"/></g>
<g><path style="opacity:1" fill="#637e6d" d="M 515.5,263.5 C 515.56,262.957 515.893,262.624 516.5,262.5C 517.647,264.765 517.814,267.098 517,269.5C 516.809,267.292 516.309,265.292 515.5,263.5 Z"/></g>
<g><path style="opacity:1" fill="#6d8575" d="M 193.5,262.5 C 194.239,262.369 194.906,262.536 195.5,263C 194.68,265.333 194.347,267.5 194.5,269.5C 192.255,267.433 191.921,265.1 193.5,262.5 Z"/></g>
<g><path style="opacity:1" fill="#819284" d="M 235.5,261.5 C 237.912,261.244 239.579,262.244 240.5,264.5C 238.5,265.167 236.5,265.833 234.5,266.5C 235.714,268.069 237.381,268.902 239.5,269C 236.057,271.257 234.057,270.257 233.5,266C 233.519,264.167 234.185,262.667 235.5,261.5 Z"/></g>
<g><path style="opacity:1" fill="#798d7e" d="M 305.5,261.5 C 308.179,261.525 309.512,262.858 309.5,265.5C 307.833,265.5 306.167,265.5 304.5,265.5C 302.891,267.246 303.224,265.912 305.5,261.5 Z"/></g>
<g><path style="opacity:1" fill="#778c7d" d="M 358.5,257.5 C 359.8,259.223 360.467,261.39 360.5,264C 360.333,266.167 360.167,268.333 360,270.5C 357.816,271.108 355.816,270.441 354,268.5C 353.244,266.191 353.744,264.191 355.5,262.5C 355.746,264.22 355.746,266.22 355.5,268.5C 356.5,268.5 357.5,268.5 358.5,268.5C 357.895,264.685 357.895,261.018 358.5,257.5 Z"/></g>
<g><path style="opacity:1" fill="#6e8675" d="M 386.5,261.5 C 389.065,262.31 391.565,262.643 394,262.5C 394.667,264.833 394.667,267.167 394,269.5C 393.505,267.527 393.338,265.527 393.5,263.5C 392.178,263.33 391.011,263.663 390,264.5C 389.019,270.864 388.519,270.531 388.5,263.5C 387.5,263.5 386.5,263.5 385.5,263.5C 385.799,265.604 385.466,267.604 384.5,269.5C 383.526,267.257 383.192,264.924 383.5,262.5C 384.791,262.737 385.791,262.404 386.5,261.5 Z"/></g>
<g><path style="opacity:1" fill="#557662" d="M 456.5,265.5 C 455.733,264.828 455.066,263.995 454.5,263C 456.061,262.812 456.728,263.645 456.5,265.5 Z"/></g>
<g><path style="opacity:1" fill="#7e9082" d="M 496.5,261.5 C 498.017,261.511 499.184,262.177 500,263.5C 500.667,265.833 500.667,268.167 500,270.5C 498.417,270.507 496.751,270.174 495,269.5C 494.311,266.671 495.478,265.004 498.5,264.5C 497.624,263.749 496.624,263.249 495.5,263C 496.056,262.617 496.389,262.117 496.5,261.5 Z"/></g>
<g><path style="opacity:1" fill="#6f8776" d="M 537.5,261.5 C 538.496,261.414 539.329,261.748 540,262.5C 540.236,264.764 540.736,266.931 541.5,269C 541.167,269.167 540.833,269.333 540.5,269.5C 539.534,267.604 539.201,265.604 539.5,263.5C 538.5,263.5 537.5,263.5 536.5,263.5C 536.799,265.604 536.466,267.604 535.5,269.5C 534.526,267.257 534.192,264.924 534.5,262.5C 535.791,262.737 536.791,262.404 537.5,261.5 Z"/></g>
<g><path style="opacity:1" fill="#456b55" d="M 125.5,263.5 C 125.56,262.957 125.893,262.624 126.5,262.5C 127.647,264.765 127.814,267.098 127,269.5C 126.809,267.292 126.309,265.292 125.5,263.5 Z"/></g>
<g><path style="opacity:1" fill="#6f8676" d="M 135.5,261.5 C 138.734,261.237 140.068,262.737 139.5,266C 139.517,269.55 138.017,270.717 135,269.5C 134.333,268.5 134.333,267.5 135,266.5C 135.71,267.973 136.876,268.64 138.5,268.5C 138.75,265.495 137.417,263.662 134.5,263C 135.056,262.617 135.389,262.117 135.5,261.5 Z"/></g>
<g><path style="opacity:1" fill="#5c7b68" d="M 425.5,262.5 C 425.746,264.78 425.746,266.78 425.5,268.5C 424.207,266.364 424.207,264.364 425.5,262.5 Z"/></g>
<g><path style="opacity:1" fill="#788d7e" d="M 425.5,262.5 C 426.793,260.704 428.293,259.037 430,257.5C 430.492,258.549 430.326,259.549 429.5,260.5C 431.994,263.253 431.994,265.92 429.5,268.5C 429.406,266.761 429.239,264.761 429,262.5C 428.014,261.829 426.847,261.829 425.5,262.5 Z"/></g>
<g><path style="opacity:1" fill="#6e8676" d="M 459.5,266.5 C 459.312,264.897 459.812,263.563 461,262.5C 461.348,264.14 460.848,265.473 459.5,266.5 Z"/></g>
<g><path style="opacity:1" fill="#708777" d="M 473.5,262.5 C 474.239,262.369 474.906,262.536 475.5,263C 474.68,265.333 474.347,267.5 474.5,269.5C 472.255,267.433 471.921,265.1 473.5,262.5 Z"/></g>
<g><path style="opacity:1" fill="#6f8676" d="M 146.5,261.5 C 147.552,261.351 148.552,261.517 149.5,262C 144.999,263.817 144.499,266.317 148,269.5C 151.312,268.545 151.312,268.879 148,270.5C 143.967,268.164 143.467,265.164 146.5,261.5 Z"/></g>
<g><path style="opacity:1" fill="#65806f" d="M 456.5,265.5 C 457.222,265.918 457.722,266.584 458,267.5C 458.383,266.944 458.883,266.611 459.5,266.5C 458.214,272.875 457.214,272.541 456.5,265.5 Z"/></g>
<g><path style="opacity:1" fill="#607d6a" d="M 106.5,262.5 C 108.939,261.733 110.272,262.9 110.5,266C 110.42,268.554 109.086,270.054 106.5,270.5C 105.289,271.274 105.289,272.107 106.5,273C 105.5,273.667 104.5,273.667 103.5,273C 104.833,269.667 104.833,266.333 103.5,263C 104.448,262.517 105.448,262.351 106.5,262.5 Z"/></g>
<g><path style="opacity:1" fill="#bab7b1" d="M 106.5,262.5 C 110.744,265.417 110.41,267.417 105.5,268.5C 105.325,266.379 105.659,264.379 106.5,262.5 Z"/></g>
<g><path style="opacity:1" fill="#728979" d="M 118.5,262.5 C 119.117,262.611 119.617,262.944 120,263.5C 120.667,265.833 120.667,268.167 120,270.5C 118.992,270.018 117.825,269.852 116.5,270C 114.74,269.035 114.406,267.868 115.5,266.5C 116.524,267.853 117.857,268.52 119.5,268.5C 119.167,266.5 118.833,264.5 118.5,262.5 Z"/></g>
<g><path style="opacity:1" fill="#758b7b" d="M 207.5,269.5 C 205.061,270.267 203.728,269.1 203.5,266C 204.342,261.388 206.509,260.554 210,263.5C 210.667,265.167 210.667,266.833 210,268.5C 209.329,269.252 208.496,269.586 207.5,269.5 Z"/></g>
<g><path style="opacity:1" fill="#b7b6af" d="M 207.5,269.5 C 203.771,267.463 203.604,265.13 207,262.5C 210.121,264.674 210.288,267.007 207.5,269.5 Z"/></g>
<g><path style="opacity:1" fill="#5e7b68" d="M 347.5,263.5 C 348.793,265.364 348.793,267.364 347.5,269.5C 344.399,270.903 343.233,269.903 344,266.5C 344.71,267.973 345.876,268.64 347.5,268.5C 347.5,266.833 347.5,265.167 347.5,263.5 Z"/></g>
<g><path style="opacity:1" fill="#6e8676" d="M 248.5,266.5 C 249.791,267.542 249.791,268.708 248.5,270C 247.056,270.781 245.723,270.614 244.5,269.5C 245.274,268.289 246.107,268.289 247,269.5C 248.039,268.756 248.539,267.756 248.5,266.5 Z"/></g>
<g><path style="opacity:1" fill="#5f7c6a" d="M 369.5,262.5 C 370.797,264.693 370.797,267.027 369.5,269.5C 366.399,270.903 365.233,269.903 366,266.5C 366.71,267.973 367.876,268.64 369.5,268.5C 369.5,266.5 369.5,264.5 369.5,262.5 Z"/></g>
<g><path style="opacity:1" fill="#6c8574" d="M 407.5,262.5 C 408.481,264.309 409.981,265.643 412,266.5C 412.308,270.367 410.641,271.367 407,269.5C 406.333,268.833 406.333,268.167 407,267.5C 408.363,269.784 409.863,269.951 411.5,268C 408.785,267.125 407.452,265.292 407.5,262.5 Z"/></g>
<g><path style="opacity:1" fill="#778c7c" d="M 417.5,262.5 C 418.266,264.684 418.933,267.018 419.5,269.5C 418.635,270.583 417.635,270.749 416.5,270C 417.435,267.619 417.768,265.119 417.5,262.5 Z"/></g>
<g><path style="opacity:1" fill="#6e8676" d="M 509.5,266.5 C 510.791,267.542 510.791,268.708 509.5,270C 508.056,270.781 506.723,270.614 505.5,269.5C 506.274,268.289 507.107,268.289 508,269.5C 509.039,268.756 509.539,267.756 509.5,266.5 Z"/></g>
</svg>
